<svg width="96" height="56" viewBox="0 0 96 56" fill="none" xmlns="http://www.w3.org/2000/svg">
<path d="M47.1631 43.488C42.7168 51.3422 36.0475 54.7389 26.0642 54.7389C11.6948 54.7389 0 43.0516 0 28.6785C0 14.3054 11.6948 2.62184 26.0642 2.62184C28.1105 2.62184 30.1418 2.87011 32.1204 3.34407L34.1817 0L42.7808 15.9643L24.6611 15.4376L26.3275 12.733C26.2372 12.733 26.1469 12.7218 26.0642 12.7218C17.2658 12.7218 10.1037 19.8801 10.1037 28.6823C10.1037 37.4844 17.262 44.6352 26.0642 44.6352C34.8664 44.6352 38.9665 42.1789 42.1338 27.6064C42.6604 25.199 43.2472 22.9872 43.9168 20.9559C43.9544 26.2109 47.7611 36.2732 47.1631 43.4842V43.488Z" fill="#002E50"/>
<path d="M96 26.9369C96 41.3062 84.3052 52.9973 69.9358 52.9973C67.7428 52.9973 65.5686 52.7114 63.4621 52.1698L61.3406 55.4837L53.0086 39.3765L71.1207 40.2116L69.4167 42.8748C69.5898 42.8786 69.7628 42.8974 69.9358 42.8974C78.7342 42.8974 85.8963 35.7391 85.8963 26.9369C85.8963 18.1347 78.738 10.9764 69.9358 10.9764C61.1337 10.9764 57.0335 13.4365 53.8662 28.0089C53.0387 31.8119 52.0419 35.1259 50.8419 37.9998C51.7409 30.1719 47.1179 18.8118 47.874 13.9706C52.3014 4.81111 59.204 0.876465 69.9358 0.876465C84.3052 0.876465 96 12.5638 96 26.9369Z" fill="#002E50"/>
</svg>
